<svg width="32" height="32" viewBox="0 0 32 32" fill="none" xmlns="http://www.w3.org/2000/svg">
<rect width="32" height="32" rx="8" fill="#2C2B2B"/>
<path fill-rule="evenodd" clip-rule="evenodd" d="M12.9766 8.71075C13.7586 8.67475 14.008 8.66675 16 8.66675C17.992 8.66675 18.2413 8.67541 19.0226 8.71075C19.804 8.74608 20.3373 8.87075 20.804 9.05141C21.2926 9.23608 21.736 9.52475 22.1026 9.89808C22.476 10.2641 22.764 10.7067 22.948 11.1961C23.1293 11.6627 23.2533 12.1961 23.2893 12.9761C23.3253 13.7594 23.3333 14.0087 23.3333 16.0001C23.3333 17.9921 23.3246 18.2414 23.2893 19.0234C23.254 19.8034 23.1293 20.3367 22.948 20.8034C22.764 21.2928 22.4755 21.7362 22.1026 22.1027C21.736 22.4761 21.2926 22.7641 20.804 22.9481C20.3373 23.1294 19.804 23.2534 19.024 23.2894C18.2413 23.3254 17.992 23.3334 16 23.3334C14.008 23.3334 13.7586 23.3247 12.9766 23.2894C12.1966 23.2541 11.6633 23.1294 11.1966 22.9481C10.7072 22.7641 10.2638 22.4756 9.89729 22.1027C9.52421 21.7365 9.2355 21.2933 9.05129 20.8041C8.87063 20.3374 8.74663 19.8041 8.71063 19.0241C8.67463 18.2407 8.66663 17.9914 8.66663 16.0001C8.66663 14.0081 8.67529 13.7587 8.71063 12.9774C8.74596 12.1961 8.87063 11.6627 9.05129 11.1961C9.23577 10.7068 9.52471 10.2636 9.89796 9.89741C10.264 9.52442 10.7069 9.23571 11.196 9.05141C11.6626 8.87075 12.196 8.74675 12.976 8.71075H12.9766ZM18.9633 10.0307C18.19 9.99541 17.958 9.98808 16 9.98808C14.042 9.98808 13.81 9.99541 13.0366 10.0307C12.3213 10.0634 11.9333 10.1827 11.6746 10.2834C11.3326 10.4167 11.088 10.5747 10.8313 10.8314C10.588 11.0681 10.4007 11.3563 10.2833 11.6747C10.1826 11.9334 10.0633 12.3214 10.0306 13.0367C9.99529 13.8101 9.98796 14.0421 9.98796 16.0001C9.98796 17.9581 9.99529 18.1901 10.0306 18.9634C10.0633 19.6787 10.1826 20.0667 10.2833 20.3254C10.4006 20.6434 10.588 20.9321 10.8313 21.1687C11.068 21.4121 11.3566 21.5994 11.6746 21.7167C11.9333 21.8174 12.3213 21.9367 13.0366 21.9694C13.81 22.0047 14.0413 22.0121 16 22.0121C17.9586 22.0121 18.19 22.0047 18.9633 21.9694C19.6786 21.9367 20.0666 21.8174 20.3253 21.7167C20.6673 21.5834 20.912 21.4254 21.1686 21.1687C21.412 20.9321 21.5993 20.6434 21.7166 20.3254C21.8173 20.0667 21.9366 19.6787 21.9693 18.9634C22.0046 18.1901 22.012 17.9581 22.012 16.0001C22.012 14.0421 22.0046 13.8101 21.9693 13.0367C21.9366 12.3214 21.8173 11.9334 21.7166 11.6747C21.5833 11.3327 21.4253 11.0881 21.1686 10.8314C20.9319 10.5881 20.6438 10.4009 20.3253 10.2834C20.0666 10.1827 19.6786 10.0634 18.9633 10.0307ZM15.0633 18.2607C15.5864 18.4785 16.1689 18.5079 16.7112 18.3439C17.2536 18.1799 17.7222 17.8327 18.037 17.3616C18.3518 16.8905 18.4933 16.3247 18.4373 15.7608C18.3813 15.197 18.1313 14.6701 17.73 14.2701C17.4741 14.0144 17.1648 13.8186 16.8242 13.6968C16.4836 13.5751 16.1202 13.5303 15.7603 13.5658C15.4003 13.6013 15.0527 13.7162 14.7425 13.9022C14.4323 14.0881 14.1671 14.3406 13.9662 14.6413C13.7652 14.9421 13.6334 15.2836 13.5803 15.6414C13.5272 15.9992 13.5541 16.3643 13.659 16.7104C13.7639 17.0566 13.9443 17.3752 14.1871 17.6432C14.4299 17.9113 14.7292 18.1222 15.0633 18.2607ZM13.3346 13.3347C13.6846 12.9847 14.1002 12.7071 14.5575 12.5177C15.0148 12.3282 15.505 12.2307 16 12.2307C16.495 12.2307 16.9851 12.3282 17.4424 12.5177C17.8997 12.7071 18.3153 12.9847 18.6653 13.3347C19.0153 13.6848 19.293 14.1003 19.4824 14.5576C19.6718 15.0149 19.7693 15.5051 19.7693 16.0001C19.7693 16.4951 19.6718 16.9852 19.4824 17.4425C19.293 17.8999 19.0153 18.3154 18.6653 18.6654C17.9584 19.3723 16.9997 19.7694 16 19.7694C15.0003 19.7694 14.0415 19.3723 13.3346 18.6654C12.6277 17.9585 12.2306 16.9998 12.2306 16.0001C12.2306 15.0004 12.6277 14.0416 13.3346 13.3347ZM20.6053 12.7921C20.692 12.7103 20.7615 12.6119 20.8095 12.5027C20.8575 12.3936 20.8832 12.2759 20.8849 12.1567C20.8866 12.0375 20.8644 11.9191 20.8196 11.8086C20.7748 11.6981 20.7082 11.5978 20.6239 11.5134C20.5396 11.4291 20.4392 11.3626 20.3288 11.3178C20.2183 11.2729 20.0999 11.2507 19.9807 11.2525C19.8614 11.2542 19.7438 11.2799 19.6346 11.3279C19.5255 11.3759 19.4271 11.4453 19.3453 11.5321C19.1862 11.7008 19.099 11.9248 19.1024 12.1567C19.1058 12.3886 19.1994 12.61 19.3634 12.774C19.5274 12.938 19.7488 13.0316 19.9807 13.0349C20.2125 13.0383 20.4366 12.9512 20.6053 12.7921Z" fill="#FFFBFB" fill-opacity="0.65"/>
</svg>
